<svg width="32" height="32" viewBox="0 0 32 32" fill="none" xmlns="http://www.w3.org/2000/svg">
<rect width="32" height="32" rx="4" fill="#2B2B2B"/>
<path d="M18 11C18 10.068 18 9.602 17.848 9.235C17.7475 8.99218 17.6001 8.77155 17.4143 8.58572C17.2284 8.3999 17.0078 8.25251 16.765 8.152C16.398 8 15.932 8 15 8H12C10.114 8 9.172 8 8.586 8.586C8 9.172 8 10.114 8 12V15C8 15.932 8 16.398 8.152 16.765C8.25251 17.0078 8.3999 17.2284 8.58572 17.4143C8.77155 17.6001 8.99218 17.7475 9.235 17.848C9.602 18 10.068 18 11 18" stroke="white" stroke-width="2"/>
<path d="M22 14H16C14.8954 14 14 14.8954 14 16V22C14 23.1046 14.8954 24 16 24H22C23.1046 24 24 23.1046 24 22V16C24 14.8954 23.1046 14 22 14Z" stroke="white" stroke-width="2"/>
</svg>
