<svg width="582" height="513" viewBox="0 0 582 513" fill="none" xmlns="http://www.w3.org/2000/svg">
<path d="M493 511C483.4 495 462.333 485 453.5 482L501 460.5C514.2 458.9 539.167 472.5 550 479.5L493 511Z" fill="#FED034"/>
<path d="M86.5 509.5C99.7 491.5 120 483.667 128 482L79.5 460C57.5 460.8 38.3333 474 31.5 480.5L86.5 509.5Z" fill="#FED034"/>
<path d="M356 247.5L290.5 363L459 438L522 322.5L356 247.5Z" fill="#BF0800"/>
<path d="M459 438L291 512.5L415.5 499L581.5 424.5L459 438Z" fill="#D00F06"/>
<path d="M59.5 323.5L123.5 438L291 363L227 249L59.5 323.5Z" fill="#D00F06"/>
<path d="M124.5 438L291 512.5L166 499L0 425L124.5 438Z" fill="#BF0800"/>
<path d="M290.5 363L124 438L290.5 512.5L459 438L290.5 363Z" fill="#FE241B"/>
<path d="M278 73.4999C300.4 32.6999 330 55.1665 342 71.4999L346 86H330L276.5 88L278 73.4999Z" fill="#FEC831"/>
<path d="M308 65C303.6 63.8 292.833 71.8333 288 76C286.5 77.1667 283.6 77.8 284 71C284.5 62.5 295 55 305.5 54C316 53 313.5 66.5 308 65Z" fill="#FDE36C"/>
<path d="M421 60C373.8 27.6 335 60.1667 321.5 80.5L421 105C438.2 82.6 428.167 65.6667 421 60Z" fill="#FEC831"/>
<path d="M412.5 54.5001C429.7 64.9001 424.667 78.8334 420 84.5001C418.167 85.0001 413.7 85 410.5 81C406.5 76 389.5 71 372.5 71.5C358.9 71.9 351.167 67.6667 349 65.5C347.667 64.6667 346 61.8001 350 57.0001C355 51.0001 391 41.5001 412.5 54.5001Z" fill="#FDE36C"/>
<path d="M377 71.9999C364.6 39.5999 337.5 63.8332 325.5 79.9999L377 92C379.4 88.4 378 77.1666 377 71.9999Z" fill="#E99F00"/>
<path d="M252 47C177.5 41 183.833 84.0003 194.5 106.5L298.5 79.5003C272.1 55.1003 261 49 252 47Z" fill="#FEC831"/>
<path d="M202.5 82.9999C183.3 84.9999 193.167 67.4999 200.5 58.4999C228 47.4998 232 49.9999 247 49.4999C262 48.9999 279 59.9999 265.5 64.4999C252 68.9999 226.5 80.4999 202.5 82.9999Z" fill="#FDE36C"/>
<path d="M245.5 63.5001C234.3 74.7001 240.167 88.8334 244.5 94.5001L295.5 80.0001C267.5 54.5001 259.5 49.5001 245.5 63.5001Z" fill="#E99F00"/>
<path d="M309 160L92 201L309 222L527 201L309 160Z" fill="#BF0800"/>
<path d="M527 201L309 160V222L527 201Z" fill="#D00F06"/>
<path d="M310 160L92 201H100L310 163.5L519 201H527L310 160Z" fill="#EE3228"/>
<path d="M89 132.5L91 201L310.5 160.5L527.5 201L529.5 132L310.5 76L89 132.5Z" fill="#E6251C"/>
<path d="M310.5 76V160.5L527.5 201L529.5 132L310.5 76Z" fill="#D00F06"/>
<path d="M182.5 228.5L200 212L164 208L147 226.5L182.5 228.5Z" fill="#FD9C0D"/>
<path d="M436 228.5L419 211.5L455 208L471 226L436 228.5Z" fill="#FD9C0D"/>
<path d="M207 180L177 185L175 110.5L205 103L207 180Z" fill="#B90800"/>
<path d="M442 185L412.5 180V102L442 109.5V185Z" fill="#B90800"/>
<path d="M462 179C433.2 159 418 120 414 103L453 112.5C454.2 136.1 488.167 172 505 187L462 179Z" fill="#FDD130"/>
<path d="M157.5 180C187.9 156 201.5 118.333 204.5 102.5L165.5 113C162.3 138.6 129.167 173.667 113 188L157.5 180Z" fill="#FDD130"/>
<path d="M20 260L122 437.5L289.5 512L459.5 437.5L560 260H20Z" fill="url(#paint0_linear_41_455)"/>
<defs>
<linearGradient id="paint0_linear_41_455" x1="286" y1="280.711" x2="287.845" y2="508.887" gradientUnits="userSpaceOnUse">
<stop stop-color="#FDD130" stop-opacity="0"/>
<stop offset="1" stop-color="#E99F00" stop-opacity="0.8"/>
</linearGradient>
</defs>
</svg>
