<svg width="142" height="21" viewBox="0 0 142 21" fill="none" xmlns="http://www.w3.org/2000/svg">
<path d="M137.727 18H129.91L125.633 3.59766H131.562L132.91 8.83594C133.129 9.65625 133.312 10.6836 133.461 11.918C133.617 13.1523 133.695 14.2188 133.695 15.1172H133.941C133.941 14.2188 134.016 13.1406 134.164 11.8828C134.32 10.625 134.5 9.60938 134.703 8.83594L136.074 3.59766H142.004L137.727 18Z" fill="#F7F7F7"/>
<path d="M120.418 18.293C119.215 18.293 118.102 18.1016 117.078 17.7188C116.055 17.3281 115.195 16.7969 114.5 16.125C113.812 15.4531 113.273 14.6562 112.883 13.7344C112.492 12.8125 112.297 11.8281 112.297 10.7812C112.297 9.75781 112.477 8.78906 112.836 7.875C113.195 6.96094 113.695 6.16797 114.336 5.49609C114.977 4.82422 115.762 4.29297 116.691 3.90234C117.629 3.51172 118.645 3.31641 119.738 3.31641C120.66 3.31641 121.527 3.45312 122.34 3.72656C123.16 3.99219 123.883 4.375 124.508 4.875C125.133 5.375 125.625 6.01562 125.984 6.79688C126.352 7.57812 126.535 8.44922 126.535 9.41016C126.535 9.93359 126.473 10.5391 126.348 11.2266L117.465 10.8281C117.551 11.6172 117.91 12.2031 118.543 12.5859C119.184 12.9609 119.984 13.1484 120.945 13.1484C122.695 13.1484 124.23 12.6758 125.551 11.7305H125.867V17.0391C125.266 17.4062 124.488 17.707 123.535 17.9414C122.582 18.1758 121.543 18.293 120.418 18.293ZM117.652 9.52734L121.707 9.31641C121.59 8.95703 121.363 8.67578 121.027 8.47266C120.699 8.26172 120.297 8.15625 119.82 8.15625C119.352 8.15625 118.922 8.27344 118.531 8.50781C118.141 8.73438 117.848 9.07422 117.652 9.52734Z" fill="#F7F7F7"/>
<path d="M101.445 18.293C100.266 18.293 99.2344 17.9531 98.3516 17.2734C97.4766 16.5938 96.8203 15.6953 96.3828 14.5781C95.9453 13.4609 95.7266 12.2109 95.7266 10.8281C95.7266 9.44531 95.9453 8.19141 96.3828 7.06641C96.8281 5.94141 97.4883 5.03516 98.3633 4.34766C99.2461 3.66016 100.273 3.31641 101.445 3.31641C101.742 3.31641 102.023 3.33203 102.289 3.36328C102.555 3.39453 102.852 3.46094 103.18 3.5625C103.508 3.65625 103.809 3.78516 104.082 3.94922C104.355 4.11328 104.629 4.33984 104.902 4.62891C105.176 4.91797 105.41 5.25781 105.605 5.64844C105.809 6.03125 105.98 6.51172 106.121 7.08984C106.262 7.66016 106.352 8.29688 106.391 9H106.672L106.145 5.51953V0H111.57V18H105.934L106.438 13.0547H106.25C106.117 13.8516 105.926 14.5586 105.676 15.1758C105.434 15.7852 105.16 16.2852 104.855 16.6758C104.551 17.0586 104.203 17.375 103.812 17.625C103.43 17.875 103.047 18.0469 102.664 18.1406C102.281 18.2422 101.875 18.293 101.445 18.293ZM103.871 13.1016C104.746 13.1016 105.457 12.918 106.004 12.5508C106.551 12.1758 106.824 11.6328 106.824 10.9219C106.824 10.1953 106.551 9.64844 106.004 9.28125C105.457 8.91406 104.746 8.73047 103.871 8.73047C102.996 8.73047 102.289 8.91406 101.75 9.28125C101.211 9.64844 100.941 10.1953 100.941 10.9219C100.941 11.6328 101.211 12.1758 101.75 12.5508C102.297 12.918 103.004 13.1016 103.871 13.1016Z" fill="#F7F7F7"/>
<path d="M78.1953 18.293C77.0156 18.293 75.9844 17.9531 75.1016 17.2734C74.2266 16.5938 73.5703 15.6953 73.1328 14.5781C72.6953 13.4609 72.4766 12.2109 72.4766 10.8281C72.4766 9.44531 72.6953 8.19141 73.1328 7.06641C73.5781 5.94141 74.2383 5.03516 75.1133 4.34766C75.9961 3.66016 77.0234 3.31641 78.1953 3.31641C78.4922 3.31641 78.7734 3.33203 79.0391 3.36328C79.3047 3.39453 79.6016 3.46094 79.9297 3.5625C80.2578 3.65625 80.5586 3.78516 80.832 3.94922C81.1055 4.11328 81.3789 4.33984 81.6523 4.62891C81.9258 4.91797 82.1602 5.25781 82.3555 5.64844C82.5586 6.03125 82.7305 6.51172 82.8711 7.08984C83.0117 7.66016 83.1016 8.29688 83.1406 9H83.4219L82.8945 5.51953V0H88.3203V18H82.6836L83.1875 13.0547H83C82.8672 13.8516 82.6758 14.5586 82.4258 15.1758C82.1836 15.7852 81.9102 16.2852 81.6055 16.6758C81.3008 17.0586 80.9531 17.375 80.5625 17.625C80.1797 17.875 79.7969 18.0469 79.4141 18.1406C79.0312 18.2422 78.625 18.293 78.1953 18.293ZM80.6211 13.1016C81.4961 13.1016 82.207 12.918 82.7539 12.5508C83.3008 12.1758 83.5742 11.6328 83.5742 10.9219C83.5742 10.1953 83.3008 9.64844 82.7539 9.28125C82.207 8.91406 81.4961 8.73047 80.6211 8.73047C79.7461 8.73047 79.0391 8.91406 78.5 9.28125C77.9609 9.64844 77.6914 10.1953 77.6914 10.9219C77.6914 11.6328 77.9609 12.1758 78.5 12.5508C79.0469 12.918 79.7539 13.1016 80.6211 13.1016Z" fill="#F7F7F7"/>
<path d="M67.3438 18H61.7305V3.59766H67.4141L66.5117 11.7891H66.7461C66.8789 10.1406 67.082 8.76562 67.3555 7.66406C67.6289 6.5625 67.9883 5.69531 68.4336 5.0625C68.8867 4.42188 69.3945 3.97266 69.957 3.71484C70.5273 3.44922 71.2109 3.31641 72.0078 3.31641V9.86719H71.6914C71.2695 9.44531 70.7422 9.23438 70.1094 9.23438C69.2578 9.23438 68.582 9.61328 68.082 10.3711C67.5898 11.1289 67.3438 12.2812 67.3438 13.8281V18Z" fill="#F7F7F7"/>
<path d="M50.3984 18.293C49.7656 18.293 49.1758 18.2148 48.6289 18.0586C48.0898 17.9023 47.6016 17.668 47.1641 17.3555C46.7266 17.043 46.3828 16.6211 46.1328 16.0898C45.8828 15.5508 45.7578 14.9297 45.7578 14.2266C45.7578 13.5234 45.8945 12.8945 46.168 12.3398C46.4492 11.7852 46.8125 11.3359 47.2578 10.9922C47.7031 10.6484 48.2344 10.3633 48.8516 10.1367C49.4766 9.91016 50.1055 9.75391 50.7383 9.66797C51.3711 9.57422 52.0391 9.52734 52.7422 9.52734C53.6016 9.52734 54.4258 9.58984 55.2148 9.71484V9.50391C54.8633 8.80078 53.9102 8.44922 52.3555 8.44922C51.5117 8.44922 50.6445 8.60156 49.7539 8.90625C48.8711 9.20312 48.1094 9.58594 47.4688 10.0547H47.1523V4.60547C47.9258 4.23828 48.832 3.93359 49.8711 3.69141C50.918 3.44141 51.9961 3.31641 53.1055 3.31641C55.457 3.31641 57.3203 3.94531 58.6953 5.20312C60.0703 6.45312 60.7578 8.13281 60.7578 10.2422V18H55.3086V17.543L56.0117 11.6836H55.7422C55.6719 13.9023 55.1719 15.5586 54.2422 16.6523C53.3125 17.7461 52.0312 18.293 50.3984 18.293ZM52.3789 14.2852C53.0664 14.2852 53.6211 14.0391 54.043 13.5469C54.4727 13.0469 54.7188 12.418 54.7812 11.6602H53.7266C52.75 11.6602 52.0508 11.8125 51.6289 12.1172C51.207 12.4219 50.9961 12.7891 50.9961 13.2188C50.9961 13.5625 51.1289 13.8281 51.3945 14.0156C51.6602 14.1953 51.9883 14.2852 52.3789 14.2852Z" fill="#F7F7F7"/>
<path d="M34.6836 18H27.7695L24.4531 3.59766H30.3828L31.25 10.8047C31.2656 10.9609 31.3008 11.2578 31.3555 11.6953C31.4102 12.125 31.4492 12.4453 31.4727 12.6562C31.5039 12.8594 31.5352 13.1289 31.5664 13.4648C31.5977 13.793 31.6211 14.0898 31.6367 14.3555C31.6523 14.6211 31.6602 14.875 31.6602 15.1172H31.8477L32.8086 3.59766H38.4219L39.3828 15.1172H39.5703C39.5703 14.7344 39.5859 14.3281 39.6172 13.8984C39.6562 13.4688 39.7227 12.8945 39.8164 12.1758C39.9102 11.4492 39.9648 11 39.9805 10.8281L40.8477 3.59766H46.7773L43.4609 18H36.5469L35.7148 8.68359H35.5156L34.6836 18Z" fill="#F7F7F7"/>
<path d="M18.8633 18.293C17.6602 18.293 16.5469 18.1016 15.5234 17.7188C14.5 17.3281 13.6406 16.7969 12.9453 16.125C12.2578 15.4531 11.7188 14.6562 11.3281 13.7344C10.9375 12.8125 10.7422 11.8281 10.7422 10.7812C10.7422 9.75781 10.9219 8.78906 11.2812 7.875C11.6406 6.96094 12.1406 6.16797 12.7812 5.49609C13.4219 4.82422 14.207 4.29297 15.1367 3.90234C16.0742 3.51172 17.0898 3.31641 18.1836 3.31641C19.1055 3.31641 19.9727 3.45312 20.7852 3.72656C21.6055 3.99219 22.3281 4.375 22.9531 4.875C23.5781 5.375 24.0703 6.01562 24.4297 6.79688C24.7969 7.57812 24.9805 8.44922 24.9805 9.41016C24.9805 9.93359 24.918 10.5391 24.793 11.2266L15.9102 10.8281C15.9961 11.6172 16.3555 12.2031 16.9883 12.5859C17.6289 12.9609 18.4297 13.1484 19.3906 13.1484C21.1406 13.1484 22.6758 12.6758 23.9961 11.7305H24.3125V17.0391C23.7109 17.4062 22.9336 17.707 21.9805 17.9414C21.0273 18.1758 19.9883 18.293 18.8633 18.293ZM16.0977 9.52734L20.1523 9.31641C20.0352 8.95703 19.8086 8.67578 19.4727 8.47266C19.1445 8.26172 18.7422 8.15625 18.2656 8.15625C17.7969 8.15625 17.3672 8.27344 16.9766 8.50781C16.5859 8.73438 16.293 9.07422 16.0977 9.52734Z" fill="#F7F7F7"/>
<path d="M5.60938 18H-0.00390625V3.59766H5.67969L4.77734 11.7891H5.01172C5.14453 10.1406 5.34766 8.76562 5.62109 7.66406C5.89453 6.5625 6.25391 5.69531 6.69922 5.0625C7.15234 4.42188 7.66016 3.97266 8.22266 3.71484C8.79297 3.44922 9.47656 3.31641 10.2734 3.31641V9.86719H9.95703C9.53516 9.44531 9.00781 9.23438 8.375 9.23438C7.52344 9.23438 6.84766 9.61328 6.34766 10.3711C5.85547 11.1289 5.60938 12.2812 5.60938 13.8281V18Z" fill="#F7F7F7"/>
<path d="M87.9732 17.6815C89.117 18.7795 90.5968 19.293 92.3126 19.293C94.0186 19.293 95.4912 18.778 96.6334 17.6815C97.7598 16.6002 98.3293 15.2395 98.3293 13.665C98.3293 12.097 97.7494 10.7393 96.6176 9.65104C95.4699 8.53485 94.006 8 92.3126 8C90.6094 8 89.1384 8.53325 87.9891 9.65104C86.8572 10.7393 86.2773 12.097 86.2773 13.665C86.2773 15.2395 86.8469 16.6002 87.9732 17.6815Z" fill="#FDD130" stroke="#232323" stroke-width="2"/>
</svg>
